<svg xmlns="http://www.w3.org/2000/svg" version="1.1" xmlns:xlink="http://www.w3.org/1999/xlink" xmlns:svgjs="http://svgjs.dev/svgjs" width="128" height="128" viewBox="0 0 128 128"><g transform="matrix(0.8046875,0,0,0.8046875,12.760752631578946,21.712195812114786)"><svg viewBox="0 0 95 78" data-background-color="#ffffff" preserveAspectRatio="xMidYMid meet" height="105" width="128" xmlns="http://www.w3.org/2000/svg" xmlns:xlink="http://www.w3.org/1999/xlink"><g id="tight-bounds" transform="matrix(1,0,0,1,-0.24049999999999727,0.038505502713448436)"><svg viewBox="0 0 95.481 77.9229889945731" height="77.9229889945731" width="95.481"><g><svg viewBox="0 0 95.481 77.9229889945731" height="77.9229889945731" width="95.481"><g><svg viewBox="0 0 95.481 77.9229889945731" height="77.9229889945731" width="95.481"><g id="textblocktransform"><svg viewBox="0 0 95.481 77.9229889945731" height="77.9229889945731" width="95.481" id="textblock"><g><svg viewBox="0 0 95.481 77.9229889945731" height="77.9229889945731" width="95.481"><g><svg viewBox="0 0 95.481 77.9229889945731" height="77.9229889945731" width="95.481"><g><svg xmlns="http://www.w3.org/2000/svg" xmlns:xlink="http://www.w3.org/1999/xlink" version="1.1" x="0" y="0" viewBox="3.6624025470318395 12.200000000000001 92.63458310746675 75.6" enable-background="new 0 0 100 100" xml:space="preserve" height="77.9229889945731" width="95.481" class="icon-icon-0" data-fill-palette-color="accent" id="icon-0"><path d="M43 33.2c0-2.9 2.3-5.2 5.2-5.3v-1.7c0-0.9 0.8-1.7 1.7-1.7s1.7 0.8 1.7 1.7v1.7H54c0.9 0 1.7 0.8 1.7 1.7s-0.8 1.7-1.7 1.7h-5.8c-1 0-1.9 0.8-1.9 1.9 0 1 0.8 1.9 1.9 1.9h3.3c2.9 0 5.3 2.4 5.3 5.3 0 2.9-2.3 5.2-5.2 5.3v1.8c0 0.9-0.8 1.7-1.7 1.7s-1.7-0.8-1.7-1.7v-1.8h-2.5c-0.9 0-1.7-0.8-1.7-1.7s0.8-1.7 1.7-1.7h5.9c1 0 1.9-0.8 1.9-1.9 0-1-0.8-1.9-1.9-1.9h-3.3C45.3 38.5 43 36.1 43 33.2zM49.7 20c0.9 0 1.7-0.8 1.7-1.7v-4.4c0-0.9-0.8-1.7-1.7-1.7S48 13 48 13.9v4.4C48 19.3 48.8 20 49.7 20zM51.9 60.2v-4.4c0-0.9-0.8-1.7-1.7-1.7s-1.7 0.8-1.7 1.7v4.4c0 0.9 0.8 1.7 1.7 1.7S51.9 61.1 51.9 60.2zM26.4 38.5c0 0.9 0.8 1.7 1.7 1.7h4.3c0.9 0 1.7-0.8 1.7-1.7s-0.8-1.7-1.7-1.7H28C27.1 36.8 26.4 37.6 26.4 38.5zM68.2 38c0 0.9 0.8 1.7 1.7 1.7h4.4c0.9 0 1.7-0.8 1.7-1.7s-0.8-1.7-1.7-1.7h-4.4C69 36.3 68.2 37.1 68.2 38zM36.3 24.8c0.3 0.3 0.8 0.5 1.2 0.5s0.9-0.2 1.2-0.5c0.7-0.7 0.7-1.7 0-2.4l-2.9-2.9c-0.7-0.7-1.7-0.7-2.4 0s-0.7 1.7 0 2.4L36.3 24.8zM63.4 48.9c-0.7 0.7-0.7 1.7 0 2.4l2.9 2.9c0.3 0.3 0.8 0.5 1.2 0.5s0.9-0.2 1.2-0.5c0.7-0.7 0.7-1.7 0-2.4l-2.9-2.9C65.1 48.2 64 48.2 63.4 48.9zM36.6 49.2l-2.9 2.9c-0.7 0.7-0.7 1.7 0 2.4 0.3 0.3 0.8 0.5 1.2 0.5s0.9-0.2 1.2-0.5l2.9-2.9c0.7-0.7 0.7-1.7 0-2.4S37.2 48.5 36.6 49.2zM64.3 25c0.4 0 0.9-0.2 1.2-0.5l2.9-2.9c0.7-0.7 0.7-1.7 0-2.4-0.7-0.7-1.7-0.7-2.4 0l-2.9 2.9c-0.7 0.7-0.7 1.7 0 2.4C63.4 24.8 63.8 25 64.3 25zM23.9 59.7h-0.1c-1.8-0.6-3.7 0.1-4.7 1.7-1 1.6-0.8 3.6 0.5 4.9 0.1 0.1 0.1 0.1 4.8 3.4 2 1.4 4 2.8 4.3 3 0.7 0.5 1.6 0.4 2.2-0.2 0.7-0.7 0.7-1.7 0-2.4-0.1-0.1-0.1-0.1-4.5-3.2-1.8-1.3-3.9-2.7-4.4-3.1-0.1-0.2-0.1-0.4 0-0.6 0.1-0.2 0.3-0.4 0.6-0.3l10 4.2h0.1c3.4 1.1 5.7 5 6.1 5.7l4.4 13.3c0.2 0.7 0.9 1.2 1.6 1.2 0.2 0 0.4 0 0.5-0.1 0.9-0.3 1.4-1.3 1.1-2.1L42 71.6c0-0.1-0.1-0.2-0.1-0.3-0.1-0.2-3-5.7-8-7.4L23.9 59.7zM7.3 44.2c0.3-0.2 0.5 0 0.5 0.1l7.6 13.8c0.5 0.8 1.5 1.1 2.3 0.7 0.8-0.5 1.1-1.5 0.7-2.3l-7.6-13.8v-0.1c-1.1-1.7-3.1-2.3-4.9-1.5s-2.7 2.8-2 4.7L11.6 69c0.8 2.3 2.5 4.3 4.7 5.4l12.8 6.3c1 0.5 1.8 1.4 2.1 2.5l0.9 3.3c0.2 0.8 0.9 1.3 1.6 1.3 0.1 0 0.3 0 0.4-0.1 0.9-0.2 1.5-1.2 1.2-2.1l-0.9-3.3c-0.5-2.1-2-3.8-3.9-4.7l-12.8-6.3c-1.4-0.7-2.5-1.9-3-3.4L7 44.7C7 44.6 6.9 44.3 7.3 44.2zM54.7 87.2c0.2 0.1 0.4 0.1 0.5 0.1 0.7 0 1.4-0.5 1.6-1.2l4.4-13.3c0.4-0.7 2.7-4.5 6.1-5.7h0.1l10-4.2c0.3-0.1 0.5 0.1 0.6 0.3s0.1 0.4 0 0.6c-0.6 0.4-2.7 1.9-4.5 3.2-4.3 3-4.3 3-4.4 3.1-0.7 0.7-0.7 1.7 0 2.4 0.6 0.6 1.6 0.7 2.2 0.2 0.2-0.2 2.2-1.5 4.2-2.9 4.8-3.4 4.8-3.4 4.9-3.5 1.3-1.3 1.5-3.3 0.5-4.9-1-1.6-2.9-2.3-4.7-1.7h-0.1l-10 4.2c-5 1.7-7.9 7.2-8 7.4 0 0.1-0.1 0.2-0.1 0.3L53.6 85C53.3 85.9 53.8 86.9 54.7 87.2zM85.2 67.9c-0.5 1.5-1.6 2.7-3 3.4l-12.8 6.3c-1.9 0.9-3.3 2.7-3.9 4.7l-0.9 3.3c-0.2 0.9 0.3 1.8 1.2 2.1 0.1 0 0.3 0.1 0.4 0.1 0.8 0 1.4-0.5 1.6-1.3l0.9-3.3c0.3-1.1 1.1-2 2.1-2.5l12.8-6.3c2.2-1.1 3.9-3 4.7-5.4l7.8-23.2c0.6-1.9-0.2-3.9-2-4.7-1.8-0.9-3.8-0.3-4.9 1.5v0.1l-7.6 13.8c-0.5 0.8-0.2 1.9 0.7 2.3s1.9 0.2 2.3-0.7l7.6-13.8c0.1-0.1 0.2-0.3 0.5-0.1 0.4 0.2 0.3 0.5 0.2 0.6L85.2 67.9z" fill="#096a2e" data-fill-palette-color="accent"></path></svg></g></svg></g></svg></g></svg></g></svg></g></svg></g><defs></defs></svg><rect width="95.481" height="77.9229889945731" fill="none" stroke="none" visibility="hidden"></rect></g></svg></g></svg>