<svg xmlns="http://www.w3.org/2000/svg" version="1.1" xmlns:xlink="http://www.w3.org/1999/xlink" xmlns:svgjs="http://svgjs.dev/svgjs" width="1000" height="179" viewBox="0 0 1000 179"><g transform="matrix(1,0,0,1,-0.6060606060606233,0.03996670855555351)"><svg viewBox="0 0 396 71" data-background-color="#ffffff" preserveAspectRatio="xMidYMid meet" height="179" width="1000" xmlns="http://www.w3.org/2000/svg" xmlns:xlink="http://www.w3.org/1999/xlink"><g id="tight-bounds" transform="matrix(1,0,0,1,0.2400000000000091,-0.01585271680136202)"><svg viewBox="0 0 395.52 71.03170543360271" height="71.03170543360271" width="395.52"><g><svg viewBox="0 0 511.340759009361 91.83203420850465" height="71.03170543360271" width="395.52"><g transform="matrix(1,0,0,1,115.82075900936103,20.512413179185423)"><svg viewBox="0 0 395.52 50.80720785013381" height="50.80720785013381" width="395.52"><g id="textblocktransform"><svg viewBox="0 0 395.52 50.80720785013381" height="50.80720785013381" width="395.52" id="textblock"><g><svg viewBox="0 0 395.52 50.80720785013381" height="50.80720785013381" width="395.52"><g transform="matrix(1,0,0,1,0,0)"><svg width="395.52" viewBox="0.75 -35.5 280.32000732421875 36" height="50.80720785013381" data-palette-color="#31c48d"><g class="wordmark-text-0" data-fill-palette-color="primary" id="text-0"><path d="M4.3 0L0.75-35 6.05-35 8.5-8.1 8.6-8.1 11.2-35 17.2-35 19.8-8.1 19.9-8.1 22.35-35 27.1-35 23.55 0 16.7 0 14.2-23.6 14.1-23.6 11.6 0 4.3 0ZM29.9 0L29.9-35 38.2-35Q42.45-35 44.4-33.02 46.35-31.05 46.35-26.95L46.35-26.95 46.35-25.55Q46.35-22.85 45.47-21.15 44.6-19.45 42.8-18.7L42.8-18.7 42.8-18.6Q46.9-17.2 46.9-11.3L46.9-11.3 46.9-8.3Q46.9-4.25 44.77-2.13 42.65 0 38.55 0L38.55 0 29.9 0ZM35.4-20.75L37.55-20.75Q39.2-20.75 40.02-21.6 40.85-22.45 40.85-24.45L40.85-24.45 40.85-26.4Q40.85-28.3 40.17-29.15 39.5-30 38.05-30L38.05-30 35.4-30 35.4-20.75ZM35.4-5L38.55-5Q40-5 40.7-5.78 41.4-6.55 41.4-8.45L41.4-8.45 41.4-11.5Q41.4-13.9 40.57-14.83 39.75-15.75 37.85-15.75L37.85-15.75 35.4-15.75 35.4-5ZM50.09 0L50.09-35 58.25-35Q62.5-35 64.45-33.02 66.4-31.05 66.4-26.95L66.4-26.95 66.4-24.8Q66.4-19.35 62.8-17.9L62.8-17.9 62.8-17.8Q64.8-17.2 65.62-15.35 66.45-13.5 66.45-10.4L66.45-10.4 66.45-4.25Q66.45-2.75 66.55-1.83 66.65-0.9 67.05 0L67.05 0 61.45 0Q61.15-0.85 61.05-1.6 60.95-2.35 60.95-4.3L60.95-4.3 60.95-10.7Q60.95-13.1 60.17-14.05 59.4-15 57.5-15L57.5-15 55.59-15 55.59 0 50.09 0ZM55.59-20L57.59-20Q59.25-20 60.07-20.85 60.9-21.7 60.9-23.7L60.9-23.7 60.9-26.4Q60.9-28.3 60.22-29.15 59.55-30 58.09-30L58.09-30 55.59-30 55.59-20ZM70.24 0L70.24-35 75.74-35 75.74 0 70.24 0ZM79.84 0L79.84-35 88.24-35Q92.34-35 94.39-32.8 96.44-30.6 96.44-26.35L96.44-26.35 96.44-8.65Q96.44-4.4 94.39-2.2 92.34 0 88.24 0L88.24 0 79.84 0ZM85.34-5L88.14-5Q89.49-5 90.22-5.8 90.94-6.6 90.94-8.4L90.94-8.4 90.94-26.6Q90.94-28.4 90.22-29.2 89.49-30 88.14-30L88.14-30 85.34-30 85.34-5ZM107.94 0.5Q103.94 0.5 101.84-1.78 99.74-4.05 99.74-8.3L99.74-8.3 99.74-26.7Q99.74-30.95 101.84-33.23 103.94-35.5 107.94-35.5L107.94-35.5Q111.94-35.5 114.04-33.23 116.14-30.95 116.14-26.7L116.14-26.7 116.14-23.7 110.94-23.7 110.94-27.05Q110.94-30.5 108.09-30.5L108.09-30.5Q105.24-30.5 105.24-27.05L105.24-27.05 105.24-7.9Q105.24-4.5 108.09-4.5L108.09-4.5Q110.94-4.5 110.94-7.9L110.94-7.9 110.94-14.75 108.19-14.75 108.19-19.75 116.14-19.75 116.14-8.3Q116.14-4.05 114.04-1.78 111.94 0.5 107.94 0.5L107.94 0.5ZM119.69 0L119.69-35 134.69-35 134.69-30 125.19-30 125.19-20.75 132.74-20.75 132.74-15.75 125.19-15.75 125.19-5 134.69-5 134.69 0 119.69 0ZM136.38 0L142.08-35 149.53-35 155.23 0 149.73 0 148.73-6.95 148.73-6.85 142.48-6.85 141.48 0 136.38 0ZM143.13-11.6L148.08-11.6 145.63-28.9 145.53-28.9 143.13-11.6ZM157.88 0L157.88-35 166.28-35Q170.38-35 172.43-32.8 174.48-30.6 174.48-26.35L174.48-26.35 174.48-8.65Q174.48-4.4 172.43-2.2 170.38 0 166.28 0L166.28 0 157.88 0ZM163.38-5L166.18-5Q167.53-5 168.26-5.8 168.98-6.6 168.98-8.4L168.98-8.4 168.98-26.6Q168.98-28.4 168.26-29.2 167.53-30 166.18-30L166.18-30 163.38-30 163.38-5ZM182.03 0L176.73-35 182.28-35 185.88-7.85 185.98-7.85 189.58-35 194.63-35 189.33 0 182.03 0ZM197.28 0L197.28-35 202.78-35 202.78 0 197.28 0ZM214.02 0.5Q210.02 0.5 207.97-1.78 205.92-4.05 205.92-8.3L205.92-8.3 205.92-10.3 211.12-10.3 211.12-7.9Q211.12-4.5 213.97-4.5L213.97-4.5Q215.37-4.5 216.1-5.33 216.82-6.15 216.82-8L216.82-8Q216.82-10.2 215.82-11.88 214.82-13.55 212.12-15.9L212.12-15.9Q208.72-18.9 207.37-21.33 206.02-23.75 206.02-26.8L206.02-26.8Q206.02-30.95 208.12-33.23 210.22-35.5 214.22-35.5L214.22-35.5Q218.17-35.5 220.2-33.23 222.22-30.95 222.22-26.7L222.22-26.7 222.22-25.25 217.02-25.25 217.02-27.05Q217.02-28.85 216.32-29.68 215.62-30.5 214.27-30.5L214.27-30.5Q211.52-30.5 211.52-27.15L211.52-27.15Q211.52-25.25 212.55-23.6 213.57-21.95 216.27-19.6L216.27-19.6Q219.72-16.6 221.02-14.15 222.32-11.7 222.32-8.4L222.32-8.4Q222.32-4.1 220.2-1.8 218.07 0.5 214.02 0.5L214.02 0.5ZM233.42 0.5Q229.37 0.5 227.22-1.8 225.07-4.1 225.07-8.3L225.07-8.3 225.07-26.7Q225.07-30.9 227.22-33.2 229.37-35.5 233.42-35.5L233.42-35.5Q237.47-35.5 239.62-33.2 241.77-30.9 241.77-26.7L241.77-26.7 241.77-8.3Q241.77-4.1 239.62-1.8 237.47 0.5 233.42 0.5L233.42 0.5ZM233.42-4.5Q236.27-4.5 236.27-7.95L236.27-7.95 236.27-27.05Q236.27-30.5 233.42-30.5L233.42-30.5Q230.57-30.5 230.57-27.05L230.57-27.05 230.57-7.95Q230.57-4.5 233.42-4.5L233.42-4.5ZM245.47 0L245.47-35 253.62-35Q257.87-35 259.82-33.02 261.77-31.05 261.77-26.95L261.77-26.95 261.77-24.8Q261.77-19.35 258.17-17.9L258.17-17.9 258.17-17.8Q260.17-17.2 260.99-15.35 261.82-13.5 261.82-10.4L261.82-10.4 261.82-4.25Q261.82-2.75 261.92-1.83 262.02-0.9 262.42 0L262.42 0 256.82 0Q256.52-0.85 256.42-1.6 256.32-2.35 256.32-4.3L256.32-4.3 256.32-10.7Q256.32-13.1 255.54-14.05 254.77-15 252.87-15L252.87-15 250.97-15 250.97 0 245.47 0ZM250.97-20L252.97-20Q254.62-20 255.44-20.85 256.27-21.7 256.27-23.7L256.27-23.7 256.27-26.4Q256.27-28.3 255.59-29.15 254.92-30 253.47-30L253.47-30 250.97-30 250.97-20ZM272.77 0.5Q268.77 0.5 266.72-1.78 264.67-4.05 264.67-8.3L264.67-8.3 264.67-10.3 269.87-10.3 269.87-7.9Q269.87-4.5 272.72-4.5L272.72-4.5Q274.12-4.5 274.84-5.33 275.57-6.15 275.57-8L275.57-8Q275.57-10.2 274.57-11.88 273.57-13.55 270.87-15.9L270.87-15.9Q267.47-18.9 266.12-21.33 264.77-23.75 264.77-26.8L264.77-26.8Q264.77-30.95 266.87-33.23 268.97-35.5 272.97-35.5L272.97-35.5Q276.92-35.5 278.94-33.23 280.97-30.95 280.97-26.7L280.97-26.7 280.97-25.25 275.77-25.25 275.77-27.05Q275.77-28.85 275.07-29.68 274.37-30.5 273.02-30.5L273.02-30.5Q270.27-30.5 270.27-27.15L270.27-27.15Q270.27-25.25 271.29-23.6 272.32-21.95 275.02-19.6L275.02-19.6Q278.47-16.6 279.77-14.15 281.07-11.7 281.07-8.4L281.07-8.4Q281.07-4.1 278.94-1.8 276.82 0.5 272.77 0.5L272.77 0.5Z" fill="#31c48d" data-fill-palette-color="primary"></path></g></svg></g></svg></g></svg></g></svg></g><g><svg viewBox="0 0 91.83203420850465 91.83203420850465" height="91.83203420850465" width="91.83203420850465"><g><svg></svg></g><g id="icon-0"><svg viewBox="0 0 91.83203420850465 91.83203420850465" height="91.83203420850465" width="91.83203420850465"><g><path d="M0 45.916c0-25.359 20.557-45.916 45.916-45.916 25.359 0 45.916 20.557 45.916 45.916 0 25.359-20.557 45.916-45.916 45.916-25.359 0-45.916-20.557-45.916-45.916zM45.916 87.25c22.828 0 41.334-18.506 41.334-41.334 0-22.828-18.506-41.334-41.334-41.334-22.828 0-41.334 18.506-41.334 41.334 0 22.828 18.506 41.334 41.334 41.334z" data-fill-palette-color="accent" fill="#096a2e" stroke="transparent"></path></g><g transform="matrix(1,0,0,1,20.21539167989149,24.941476687454486)"><svg viewBox="0 0 51.40125084872167 41.94908083359568" height="41.94908083359568" width="51.40125084872167"><g><svg xmlns="http://www.w3.org/2000/svg" xmlns:xlink="http://www.w3.org/1999/xlink" version="1.1" x="0" y="0" viewBox="3.662400960922241 12.199999809265137 92.63457489013672 75.60001373291016" enable-background="new 0 0 100 100" xml:space="preserve" height="41.94908083359568" width="51.40125084872167" class="icon-s-0" data-fill-palette-color="accent" id="s-0"><path d="M43 33.2c0-2.9 2.3-5.2 5.2-5.3v-1.7c0-0.9 0.8-1.7 1.7-1.7s1.7 0.8 1.7 1.7v1.7H54c0.9 0 1.7 0.8 1.7 1.7s-0.8 1.7-1.7 1.7h-5.8c-1 0-1.9 0.8-1.9 1.9 0 1 0.8 1.9 1.9 1.9h3.3c2.9 0 5.3 2.4 5.3 5.3 0 2.9-2.3 5.2-5.2 5.3v1.8c0 0.9-0.8 1.7-1.7 1.7s-1.7-0.8-1.7-1.7v-1.8h-2.5c-0.9 0-1.7-0.8-1.7-1.7s0.8-1.7 1.7-1.7h5.9c1 0 1.9-0.8 1.9-1.9 0-1-0.8-1.9-1.9-1.9h-3.3C45.3 38.5 43 36.1 43 33.2zM49.7 20c0.9 0 1.7-0.8 1.7-1.7v-4.4c0-0.9-0.8-1.7-1.7-1.7S48 13 48 13.9v4.4C48 19.3 48.8 20 49.7 20zM51.9 60.2v-4.4c0-0.9-0.8-1.7-1.7-1.7s-1.7 0.8-1.7 1.7v4.4c0 0.9 0.8 1.7 1.7 1.7S51.9 61.1 51.9 60.2zM26.4 38.5c0 0.9 0.8 1.7 1.7 1.7h4.3c0.9 0 1.7-0.8 1.7-1.7s-0.8-1.7-1.7-1.7H28C27.1 36.8 26.4 37.6 26.4 38.5zM68.2 38c0 0.9 0.8 1.7 1.7 1.7h4.4c0.9 0 1.7-0.8 1.7-1.7s-0.8-1.7-1.7-1.7h-4.4C69 36.3 68.2 37.1 68.2 38zM36.3 24.8c0.3 0.3 0.8 0.5 1.2 0.5s0.9-0.2 1.2-0.5c0.7-0.7 0.7-1.7 0-2.4l-2.9-2.9c-0.7-0.7-1.7-0.7-2.4 0s-0.7 1.7 0 2.4L36.3 24.8zM63.4 48.9c-0.7 0.7-0.7 1.7 0 2.4l2.9 2.9c0.3 0.3 0.8 0.5 1.2 0.5s0.9-0.2 1.2-0.5c0.7-0.7 0.7-1.7 0-2.4l-2.9-2.9C65.1 48.2 64 48.2 63.4 48.9zM36.6 49.2l-2.9 2.9c-0.7 0.7-0.7 1.7 0 2.4 0.3 0.3 0.8 0.5 1.2 0.5s0.9-0.2 1.2-0.5l2.9-2.9c0.7-0.7 0.7-1.7 0-2.4S37.2 48.5 36.6 49.2zM64.3 25c0.4 0 0.9-0.2 1.2-0.5l2.9-2.9c0.7-0.7 0.7-1.7 0-2.4-0.7-0.7-1.7-0.7-2.4 0l-2.9 2.9c-0.7 0.7-0.7 1.7 0 2.4C63.4 24.8 63.8 25 64.3 25zM23.9 59.7h-0.1c-1.8-0.6-3.7 0.1-4.7 1.7-1 1.6-0.8 3.6 0.5 4.9 0.1 0.1 0.1 0.1 4.8 3.4 2 1.4 4 2.8 4.3 3 0.7 0.5 1.6 0.4 2.2-0.2 0.7-0.7 0.7-1.7 0-2.4-0.1-0.1-0.1-0.1-4.5-3.2-1.8-1.3-3.9-2.7-4.4-3.1-0.1-0.2-0.1-0.4 0-0.6 0.1-0.2 0.3-0.4 0.6-0.3l10 4.2h0.1c3.4 1.1 5.7 5 6.1 5.7l4.4 13.3c0.2 0.7 0.9 1.2 1.6 1.2 0.2 0 0.4 0 0.5-0.1 0.9-0.3 1.4-1.3 1.1-2.1L42 71.6c0-0.1-0.1-0.2-0.1-0.3-0.1-0.2-3-5.7-8-7.4L23.9 59.7zM7.3 44.2c0.3-0.2 0.5 0 0.5 0.1l7.6 13.8c0.5 0.8 1.5 1.1 2.3 0.7 0.8-0.5 1.1-1.5 0.7-2.3l-7.6-13.8v-0.1c-1.1-1.7-3.1-2.3-4.9-1.5s-2.7 2.8-2 4.7L11.6 69c0.8 2.3 2.5 4.3 4.7 5.4l12.8 6.3c1 0.5 1.8 1.4 2.1 2.5l0.9 3.3c0.2 0.8 0.9 1.3 1.6 1.3 0.1 0 0.3 0 0.4-0.1 0.9-0.2 1.5-1.2 1.2-2.1l-0.9-3.3c-0.5-2.1-2-3.8-3.9-4.7l-12.8-6.3c-1.4-0.7-2.5-1.9-3-3.4L7 44.7C7 44.6 6.9 44.3 7.3 44.2zM54.7 87.2c0.2 0.1 0.4 0.1 0.5 0.1 0.7 0 1.4-0.5 1.6-1.2l4.4-13.3c0.4-0.7 2.7-4.5 6.1-5.7h0.1l10-4.2c0.3-0.1 0.5 0.1 0.6 0.3s0.1 0.4 0 0.6c-0.6 0.4-2.7 1.9-4.5 3.2-4.3 3-4.3 3-4.4 3.1-0.7 0.7-0.7 1.7 0 2.4 0.6 0.6 1.6 0.7 2.2 0.2 0.2-0.2 2.2-1.5 4.2-2.9 4.8-3.4 4.8-3.4 4.9-3.5 1.3-1.3 1.5-3.3 0.5-4.9-1-1.6-2.9-2.3-4.7-1.7h-0.1l-10 4.2c-5 1.7-7.9 7.2-8 7.4 0 0.1-0.1 0.2-0.1 0.3L53.6 85C53.3 85.9 53.8 86.9 54.7 87.2zM85.2 67.9c-0.5 1.5-1.6 2.7-3 3.4l-12.8 6.3c-1.9 0.9-3.3 2.7-3.9 4.7l-0.9 3.3c-0.2 0.9 0.3 1.8 1.2 2.1 0.1 0 0.3 0.1 0.4 0.1 0.8 0 1.4-0.5 1.6-1.3l0.9-3.3c0.3-1.1 1.1-2 2.1-2.5l12.8-6.3c2.2-1.1 3.9-3 4.7-5.4l7.8-23.2c0.6-1.9-0.2-3.9-2-4.7-1.8-0.9-3.8-0.3-4.9 1.5v0.1l-7.6 13.8c-0.5 0.8-0.2 1.9 0.7 2.3s1.9 0.2 2.3-0.7l7.6-13.8c0.1-0.1 0.2-0.3 0.5-0.1 0.4 0.2 0.3 0.5 0.2 0.6L85.2 67.9z" fill="#096a2e" data-fill-palette-color="accent"></path></svg></g></svg></g></svg></g></svg></g></svg></g><defs></defs></svg><rect width="395.52" height="71.03170543360271" fill="none" stroke="none" visibility="hidden"></rect></g></svg></g></svg>